<mxfile host="app.diagrams.net" modified="2022-06-23T15:19:46.755Z" agent="5.0 (Windows NT 10.0; Win64; x64) AppleWebKit/537.36 (KHTML, like Gecko) Chrome/103.0.0.0 Safari/537.36" etag="VuFI74Igrb8M6DuDnJ1W" version="20.0.3" type="github">
  <diagram id="cMIKeGaDXlUZ1rs9v5Cr" name="第 1 页">
    <mxGraphModel dx="994" dy="315" grid="0" gridSize="10" guides="1" tooltips="1" connect="1" arrows="1" fold="1" page="0" pageScale="1" pageWidth="850" pageHeight="1100" background="#ffffff" math="0" shadow="0">
      <root>
        <mxCell id="0" />
        <mxCell id="1" parent="0" />
        <mxCell id="mVUP1u44Px2u10kT2Zhp-5" value="" style="edgeStyle=orthogonalEdgeStyle;rounded=0;orthogonalLoop=1;jettySize=auto;html=1;fontFamily=Comic Sans MS;strokeColor=#E07A5F;fontColor=#393C56;labelBackgroundColor=#F4F1DE;" edge="1" parent="1" source="mVUP1u44Px2u10kT2Zhp-1" target="mVUP1u44Px2u10kT2Zhp-2">
          <mxGeometry relative="1" as="geometry" />
        </mxCell>
        <mxCell id="mVUP1u44Px2u10kT2Zhp-1" value="&lt;font face=&quot;Comic Sans MS&quot;&gt;开始&lt;/font&gt;" style="rounded=1;whiteSpace=wrap;html=1;fillColor=#F2CC8F;strokeColor=#E07A5F;fontColor=#393C56;" vertex="1" parent="1">
          <mxGeometry x="440" y="460" width="90" height="40" as="geometry" />
        </mxCell>
        <mxCell id="mVUP1u44Px2u10kT2Zhp-7" value="" style="edgeStyle=orthogonalEdgeStyle;rounded=0;orthogonalLoop=1;jettySize=auto;html=1;fontFamily=Comic Sans MS;strokeColor=#E07A5F;fontColor=#393C56;labelBackgroundColor=#F4F1DE;" edge="1" parent="1" source="mVUP1u44Px2u10kT2Zhp-2" target="mVUP1u44Px2u10kT2Zhp-6">
          <mxGeometry relative="1" as="geometry" />
        </mxCell>
        <mxCell id="mVUP1u44Px2u10kT2Zhp-2" value="&lt;font face=&quot;Comic Sans MS&quot;&gt;设定α范围为Amin~Amax&lt;/font&gt;&lt;br&gt;&lt;div style=&quot;text-align: left;&quot;&gt;&lt;span style=&quot;font-family: &amp;quot;Comic Sans MS&amp;quot;; background-color: initial;&quot;&gt;设定β&lt;/span&gt;&lt;span style=&quot;font-family: &amp;quot;Comic Sans MS&amp;quot;; background-color: initial;&quot;&gt;范围为Bmin~Bmax&lt;/span&gt;&lt;/div&gt;" style="rounded=1;whiteSpace=wrap;html=1;fillColor=#F2CC8F;strokeColor=#E07A5F;fontColor=#393C56;" vertex="1" parent="1">
          <mxGeometry x="415" y="530" width="140" height="60" as="geometry" />
        </mxCell>
        <mxCell id="mVUP1u44Px2u10kT2Zhp-9" value="" style="edgeStyle=orthogonalEdgeStyle;rounded=0;orthogonalLoop=1;jettySize=auto;html=1;fontFamily=Comic Sans MS;strokeColor=#E07A5F;fontColor=#393C56;labelBackgroundColor=#F4F1DE;" edge="1" parent="1" source="mVUP1u44Px2u10kT2Zhp-6" target="mVUP1u44Px2u10kT2Zhp-8">
          <mxGeometry relative="1" as="geometry" />
        </mxCell>
        <mxCell id="mVUP1u44Px2u10kT2Zhp-6" value="&lt;span style=&quot;font-family: &amp;quot;Comic Sans MS&amp;quot;;&quot;&gt;令Amin=0, Amax=40&lt;br&gt;&lt;/span&gt;&lt;span style=&quot;font-family: &amp;quot;Comic Sans MS&amp;quot;;&quot;&gt;令Bmin=0, Bmax=40&lt;br&gt;&lt;/span&gt;" style="rounded=1;whiteSpace=wrap;html=1;fillColor=#F2CC8F;strokeColor=#E07A5F;fontColor=#393C56;" vertex="1" parent="1">
          <mxGeometry x="415" y="620" width="140" height="60" as="geometry" />
        </mxCell>
        <mxCell id="mVUP1u44Px2u10kT2Zhp-11" value="" style="edgeStyle=orthogonalEdgeStyle;rounded=0;orthogonalLoop=1;jettySize=auto;html=1;fontFamily=Comic Sans MS;strokeColor=#E07A5F;fontColor=#393C56;labelBackgroundColor=#F4F1DE;" edge="1" parent="1" source="mVUP1u44Px2u10kT2Zhp-8" target="mVUP1u44Px2u10kT2Zhp-10">
          <mxGeometry relative="1" as="geometry" />
        </mxCell>
        <mxCell id="mVUP1u44Px2u10kT2Zhp-8" value="&lt;span style=&quot;font-family: &amp;quot;Comic Sans MS&amp;quot;;&quot;&gt;以二分法对&lt;/span&gt;&lt;span style=&quot;font-family: &amp;quot;Comic Sans MS&amp;quot;;&quot;&gt;α&lt;/span&gt;&lt;span style=&quot;font-family: &amp;quot;Comic Sans MS&amp;quot;;&quot;&gt;和&lt;/span&gt;&lt;span style=&quot;font-family: &amp;quot;Comic Sans MS&amp;quot;; text-align: left;&quot;&gt;β&lt;/span&gt;&lt;span style=&quot;color: rgb(17, 17, 17); font-family: Arial, Helvetica, sans-serif; font-size: 16px; text-align: left; background-color: rgb(255, 255, 255);&quot;&gt;&lt;br&gt;&lt;/span&gt;&lt;span style=&quot;font-family: &amp;quot;Comic Sans MS&amp;quot;;&quot;&gt;的范围&lt;/span&gt;&lt;span style=&quot;font-family: &amp;quot;Comic Sans MS&amp;quot;;&quot;&gt;分出四块区域&lt;/span&gt;&lt;span style=&quot;font-family: &amp;quot;Comic Sans MS&amp;quot;;&quot;&gt;&lt;br&gt;&lt;/span&gt;" style="rounded=1;whiteSpace=wrap;html=1;fillColor=#F2CC8F;strokeColor=#E07A5F;fontColor=#393C56;" vertex="1" parent="1">
          <mxGeometry x="415" y="710" width="140" height="60" as="geometry" />
        </mxCell>
        <mxCell id="mVUP1u44Px2u10kT2Zhp-15" value="" style="edgeStyle=orthogonalEdgeStyle;rounded=0;orthogonalLoop=1;jettySize=auto;html=1;fontFamily=Comic Sans MS;strokeColor=#E07A5F;fontColor=#393C56;labelBackgroundColor=#F4F1DE;" edge="1" parent="1" source="mVUP1u44Px2u10kT2Zhp-10" target="mVUP1u44Px2u10kT2Zhp-13">
          <mxGeometry relative="1" as="geometry" />
        </mxCell>
        <mxCell id="mVUP1u44Px2u10kT2Zhp-10" value="&lt;span style=&quot;font-family: &amp;quot;Comic Sans MS&amp;quot;;&quot;&gt;以最小二乘法选出&lt;br&gt;最合适的&lt;/span&gt;&lt;span style=&quot;font-family: &amp;quot;Comic Sans MS&amp;quot;;&quot;&gt;α&lt;/span&gt;&lt;span style=&quot;font-family: &amp;quot;Comic Sans MS&amp;quot;;&quot;&gt;和&lt;/span&gt;&lt;span style=&quot;font-family: &amp;quot;Comic Sans MS&amp;quot;; text-align: left;&quot;&gt;β&lt;/span&gt;&lt;span style=&quot;font-family: &amp;quot;Comic Sans MS&amp;quot;;&quot;&gt;的&lt;/span&gt;&lt;span style=&quot;font-family: &amp;quot;Comic Sans MS&amp;quot;;&quot;&gt;区域&lt;/span&gt;&lt;span style=&quot;font-family: &amp;quot;Comic Sans MS&amp;quot;;&quot;&gt;&lt;br&gt;&lt;/span&gt;" style="rounded=1;whiteSpace=wrap;html=1;fillColor=#F2CC8F;strokeColor=#E07A5F;fontColor=#393C56;" vertex="1" parent="1">
          <mxGeometry x="415" y="800" width="140" height="60" as="geometry" />
        </mxCell>
        <mxCell id="mVUP1u44Px2u10kT2Zhp-28" value="" style="edgeStyle=orthogonalEdgeStyle;rounded=0;orthogonalLoop=1;jettySize=auto;html=1;fontFamily=Comic Sans MS;strokeColor=#E07A5F;fontColor=#393C56;labelBackgroundColor=#F4F1DE;" edge="1" parent="1" source="mVUP1u44Px2u10kT2Zhp-13" target="mVUP1u44Px2u10kT2Zhp-27">
          <mxGeometry relative="1" as="geometry" />
        </mxCell>
        <mxCell id="mVUP1u44Px2u10kT2Zhp-13" value="判断α和&lt;span style=&quot;text-align: left;&quot;&gt;β&lt;/span&gt;的区域精度&lt;br&gt;是否满足需求" style="rhombus;whiteSpace=wrap;html=1;fontFamily=Comic Sans MS;fillColor=#F2CC8F;strokeColor=#E07A5F;fontColor=#393C56;" vertex="1" parent="1">
          <mxGeometry x="412.5" y="890" width="145" height="100" as="geometry" />
        </mxCell>
        <mxCell id="mVUP1u44Px2u10kT2Zhp-18" value="" style="endArrow=none;html=1;rounded=0;fontFamily=Comic Sans MS;strokeColor=#E07A5F;fontColor=#393C56;labelBackgroundColor=#F4F1DE;" edge="1" parent="1">
          <mxGeometry width="50" height="50" relative="1" as="geometry">
            <mxPoint x="557.5" y="940" as="sourcePoint" />
            <mxPoint x="640" y="940" as="targetPoint" />
          </mxGeometry>
        </mxCell>
        <mxCell id="mVUP1u44Px2u10kT2Zhp-19" value="" style="endArrow=none;html=1;rounded=0;fontFamily=Comic Sans MS;strokeColor=#E07A5F;fontColor=#393C56;labelBackgroundColor=#F4F1DE;" edge="1" parent="1">
          <mxGeometry width="50" height="50" relative="1" as="geometry">
            <mxPoint x="640" y="940" as="sourcePoint" />
            <mxPoint x="640" y="780" as="targetPoint" />
          </mxGeometry>
        </mxCell>
        <mxCell id="mVUP1u44Px2u10kT2Zhp-20" value="" style="endArrow=classic;html=1;rounded=0;fontFamily=Comic Sans MS;strokeColor=#E07A5F;fontColor=#393C56;labelBackgroundColor=#F4F1DE;" edge="1" parent="1">
          <mxGeometry width="50" height="50" relative="1" as="geometry">
            <mxPoint x="640" y="780" as="sourcePoint" />
            <mxPoint x="490" y="780" as="targetPoint" />
          </mxGeometry>
        </mxCell>
        <mxCell id="mVUP1u44Px2u10kT2Zhp-24" value="否" style="text;html=1;align=center;verticalAlign=middle;resizable=0;points=[];autosize=1;strokeColor=none;fillColor=none;fontFamily=Comic Sans MS;fontColor=#393C56;" vertex="1" parent="1">
          <mxGeometry x="570" y="910" width="40" height="30" as="geometry" />
        </mxCell>
        <mxCell id="mVUP1u44Px2u10kT2Zhp-27" value="&lt;font face=&quot;Comic Sans MS&quot;&gt;结束&lt;/font&gt;" style="rounded=1;whiteSpace=wrap;html=1;fillColor=#F2CC8F;strokeColor=#E07A5F;fontColor=#393C56;" vertex="1" parent="1">
          <mxGeometry x="440" y="1020" width="90" height="40" as="geometry" />
        </mxCell>
        <mxCell id="mVUP1u44Px2u10kT2Zhp-29" value="是" style="text;html=1;align=center;verticalAlign=middle;resizable=0;points=[];autosize=1;strokeColor=none;fillColor=none;fontFamily=Comic Sans MS;fontColor=#393C56;" vertex="1" parent="1">
          <mxGeometry x="490" y="985" width="40" height="30" as="geometry" />
        </mxCell>
      </root>
    </mxGraphModel>
  </diagram>
</mxfile>
